<mxfile host="app.diagrams.net" modified="2023-12-24T08:56:38.603Z" agent="Mozilla/5.0 (Macintosh; Intel Mac OS X 10_15_7) AppleWebKit/605.1.15 (KHTML, like Gecko) Version/17.2.1 Safari/605.1.15" version="22.1.11" etag="8z0h01auMMVsBLTZssCv" type="github">
  <diagram name="Страница — 1" id="YyLtu9qqyEws33Rjallb">
    <mxGraphModel>
      <root>
        <mxCell id="0" />
        <mxCell id="1" parent="0" />
      </root>
    </mxGraphModel>
  </diagram>
</mxfile>
